# xmcd
#
# Track frame offsets:
#	182
#	19612
#	42830
#	58982
#	68117
#	84785
#	97355
#	107255
#	127402
#	138302
#	153767
#	171152
#	185015
#	197430
#	209117
#	224735
#	243535
#
# Disc length: 3454
#
# Revision: 3
# Processed by: cddbd v1.5.1PL0 Copyright (c) Steve Scherf et al.
# Submitted via: CDex 1.40Beta9
# Normalized: r1:TRMNUM;r2:TDELIM( - ),TSWAP
#
DISCID=000d7c11
DTITLE=The Steampacket, The Yardbirds - British Blues Heroes
DYEAR=1900
DGENRE=Blues
TTITLE0=The Steampacket - Lord Remember Me
TTITLE1=The Yardbirds - Five Long Years
TTITLE2=The Steampacket - Can I Get A Witness
TTITLE3=The Yardbirds - I Ain't Got You
TTITLE4=The Steampacket - The In-Crowd
TTITLE5=The Yardbirds - Good Morning Little Schoolgirl
TTITLE6=The Steampacket - Baby Take Me
TTITLE7=The Yardbirds - I'm A Man
TTITLE8=The Steampacket - Baby Baby Baby
TTITLE9=The Yardbirds - The Train Kept A-Rolling
TTITLE10=The Steampacket - Back At The Chicken Shack
TTITLE11=The Yardbirds - Jeff's Blues
TTITLE12=The Steampacket - Cry Me A River
TTITLE13=The Yardbirds - Steeled Blues
TTITLE14=The Steampacket - Baby Don't You Do It
TTITLE15=The Yardbirds - New York City Blues
TTITLE16=The Steampacket - Holy Smoke
EXTD=ID3G: 0
EXTT0=
EXTT1=
EXTT2=
EXTT3=
EXTT4=
EXTT5=
EXTT6=
EXTT7=
EXTT8=
EXTT9=
EXTT10=
EXTT11=
EXTT12=
EXTT13=
EXTT14=
EXTT15=
EXTT16=
PLAYORDER=
